<svg width="75" height="24" viewBox="0 0 75 24" fill="none" xmlns="http://www.w3.org/2000/svg">
<path d="M0.413521 1.72138H11.3208V3.87963H2.66459V8.98516H10.3925V11.1434H2.66459V16.3418H11.6457V18.5H0.413521V1.72138ZM18.9174 18.7785L13.5798 8.89233H16.1326L19.7529 16.5274L18.4301 16.481L21.7487 8.89233H24.1622L19.0335 18.7785H18.9174ZM30.7153 18.7321C29.6168 18.7321 28.673 18.5155 27.884 18.0823C27.095 17.6336 26.4839 17.0302 26.0507 16.2721C25.6329 15.4986 25.4241 14.6167 25.4241 13.6265C25.4241 12.6828 25.6639 11.8241 26.1435 11.0506C26.6231 10.277 27.2652 9.65816 28.0697 9.19402C28.8742 8.72988 29.7715 8.49781 30.7617 8.49781C32.0303 8.49781 33.0824 8.86912 33.9178 9.61174C34.7533 10.3544 35.318 11.3755 35.6119 12.6751L27.6984 15.4599L27.1878 14.1835L33.6857 11.8164L33.2216 12.1181C33.0359 11.6075 32.7265 11.1666 32.2933 10.7953C31.8601 10.4085 31.2954 10.2151 30.5992 10.2151C30.0113 10.2151 29.4853 10.3621 29.0211 10.6561C28.557 10.9345 28.1934 11.3213 27.9304 11.8164C27.6674 12.3115 27.5359 12.8762 27.5359 13.5105C27.5359 14.1758 27.6751 14.7637 27.9536 15.2742C28.2321 15.7693 28.6112 16.1638 29.0908 16.4578C29.5859 16.7363 30.1428 16.8755 30.7617 16.8755C31.1794 16.8755 31.5816 16.7982 31.9684 16.6434C32.3707 16.4887 32.742 16.2876 33.0824 16.0401L34.0803 17.6413C33.6007 17.9662 33.0592 18.2293 32.4558 18.4304C31.8679 18.6315 31.2877 18.7321 30.7153 18.7321ZM40.2424 8.89233L40.4281 11.2362L40.3353 10.8649C40.6447 10.1532 41.1475 9.58854 41.8437 9.17081C42.5399 8.73762 43.3444 8.52102 44.2572 8.52102C45.17 8.52102 45.9127 8.79176 46.4851 9.33326C47.073 9.85928 47.3747 10.5478 47.3902 11.3987V18.5H45.2087V12.1645C45.1932 11.6385 45.0385 11.213 44.7446 10.8881C44.4661 10.5478 44.0252 10.3776 43.4218 10.3776C42.8648 10.3776 42.362 10.5323 41.9133 10.8417C41.4647 11.1511 41.1088 11.5766 40.8458 12.1181C40.5983 12.6596 40.4745 13.2862 40.4745 13.9979V18.5H38.3163V8.89233H40.2424ZM52.0718 4.66867H54.23V8.93874H56.8756V10.6328H54.23V18.5H52.0718V10.6328H50.3081V8.93874H52.0718V4.66867ZM59.4835 0.53783H61.6418V18.5H59.4835V0.53783ZM66.1881 23.1182L72.5236 8.89233H74.5194L68.3232 23.1182H66.1881ZM68.5553 18.5696L63.9371 8.89233H66.3738L70.2494 17.4789L68.5553 18.5696Z" fill="black"/>
</svg>
